<svg width="250" height="250" viewBox="0 0 250 250" fill="none" xmlns="http://www.w3.org/2000/svg">
<rect x="1.25" y="1.25" width="247.5" height="247.5" rx="123.75" fill="white" stroke="black" stroke-width="2.5"/>
<path d="M56.0724 155.576H54.9204C54.9204 151.864 56.7124 142.04 60.2964 126.104C63.8804 110.168 65.6724 101.368 65.6724 99.704C65.6724 97.016 64.6804 94.456 62.6964 92.024L61.7364 90.776L62.0244 88.856C65.8004 87.576 72.7124 86.936 82.7604 86.936C83.7844 89.24 84.3284 91.96 84.3924 95.096C91.8804 89.592 98.2804 86.84 103.592 86.84C109.672 86.84 113.288 89.464 114.44 94.712C121.672 89.464 127.976 86.84 133.352 86.84C137 86.84 139.976 87.864 142.28 89.912C144.584 91.896 145.736 94.808 145.736 98.648C145.736 102.424 144.328 109.656 141.512 120.344C138.76 130.968 137.384 138.52 137.384 143C137.384 144.664 137.736 145.496 138.44 145.496C139.784 145.496 141.416 145.112 143.336 144.344L145.352 149.816C139.4 154.04 133.512 156.152 127.688 156.152C124.936 156.152 122.728 155.32 121.064 153.656C119.4 151.992 118.568 149.56 118.568 146.36C118.568 143.096 119.88 136.056 122.504 125.24C125.192 114.36 126.536 107.736 126.536 105.368C126.536 103 126.248 101.432 125.672 100.664C125.096 99.832 123.976 99.416 122.312 99.416C120.648 99.416 118.024 100.632 114.44 103.064C113.992 106.008 113 110.776 111.464 117.368C107.432 134.2 105.416 146.136 105.416 153.176C102.28 154.84 96.8724 155.672 89.1924 155.672H86.6004C86.6004 149.784 88.1044 140.568 91.1124 128.024C94.1204 115.48 95.6244 107.96 95.6244 105.464C95.6244 102.968 95.3364 101.336 94.7604 100.568C94.2484 99.8 93.1284 99.416 91.4004 99.416C89.7364 99.416 87.0804 100.664 83.4324 103.16C82.8564 106.36 81.6724 111.672 79.8804 119.096C75.7204 136.44 73.6404 147.768 73.6404 153.08C70.8244 154.744 64.9684 155.576 56.0724 155.576ZM172.623 156.248C164.559 156.248 158.351 153.656 153.999 148.472C151.631 145.656 150.447 142.232 150.447 138.2C150.447 132.76 152.367 128.312 156.207 124.856C160.047 121.336 164.591 119.288 169.839 118.712C161.775 116.536 157.743 111.896 157.743 104.792C157.743 99.288 160.111 94.936 164.847 91.736C169.583 88.472 174.959 86.84 180.975 86.84C187.055 86.84 192.111 88.088 196.143 90.584C200.175 93.08 202.191 96.376 202.191 100.472C202.191 102.84 201.551 105.08 200.271 107.192L199.599 108.248C196.975 108.248 194.159 107.864 191.151 107.096C188.143 106.264 185.871 105.208 184.335 103.928L185.295 94.136C184.335 93.688 183.375 93.464 182.415 93.464C180.431 93.464 178.895 94.52 177.807 96.632C176.783 98.744 176.271 101.208 176.271 104.024C176.271 106.84 176.559 109.08 177.135 110.744C177.775 112.408 178.735 113.688 180.015 114.584C181.359 115.416 182.511 116.024 183.471 116.408C184.495 116.728 185.903 117.08 187.695 117.464L186.927 123.032C182.511 123.032 178.447 124.28 174.735 126.776C171.023 129.272 169.167 132.632 169.167 136.856C169.167 139.864 170.127 142.072 172.047 143.48C173.967 144.824 176.239 145.496 178.863 145.496C181.551 145.496 184.367 144.824 187.311 143.48C190.255 142.136 192.783 140.44 194.895 138.392L199.215 142.712C196.463 146.488 192.655 149.688 187.791 152.312C182.927 154.936 177.871 156.248 172.623 156.248Z" fill="black"/>
</svg>
